<svg width="48" height="48" viewBox="0 0 48 48" fill="none" xmlns="http://www.w3.org/2000/svg">
<path d="M21 11.9997C23.3869 11.9997 25.6764 12.9486 27.3643 14.6364C29.0518 16.3242 29.9999 18.613 30 20.9997C30 21.5301 29.7891 22.0387 29.4141 22.4138C29.039 22.7889 28.5304 22.9997 28 22.9997C27.4696 22.9997 26.961 22.7889 26.5859 22.4138C26.2109 22.0387 26 21.5301 26 20.9997C25.9999 19.6737 25.4728 18.4022 24.5352 17.4646C23.5975 16.5269 22.326 15.9997 21 15.9997C20.4696 15.9997 19.961 15.7889 19.5859 15.4138C19.2109 15.0387 19 14.5301 19 13.9997C19.0001 13.4694 19.2109 12.9607 19.5859 12.5857C19.961 12.2107 20.4696 11.9997 21 11.9997Z" fill="url(#paint0_linear_284_288)"/>
<path fill-rule="evenodd" clip-rule="evenodd" d="M18.5879 4.17355C21.2713 3.78894 24.0081 4.05111 26.5693 4.93917C29.1305 5.82721 31.4422 7.31495 33.3115 9.27804C35.1809 11.2412 36.5538 13.6237 37.3154 16.2253C38.077 18.8268 38.2049 21.5729 37.6895 24.2341C37.174 26.8954 36.0294 29.3951 34.3516 31.5241L41.6562 38.8278C42.0205 39.205 42.2223 39.7107 42.2178 40.2351C42.2131 40.7593 42.0025 41.2608 41.6318 41.6316C41.261 42.0024 40.7588 42.2129 40.2344 42.2175C39.7102 42.2219 39.2052 42.0201 38.8281 41.656L31.5244 34.3523C29.0177 36.3282 26.0044 37.5582 22.8311 37.9021C19.6578 38.2458 16.4518 37.6897 13.5801 36.2966C10.7082 34.9034 8.28702 32.7293 6.59277 30.0241C4.89859 27.319 3.99979 24.1916 4 20.9997C4.00027 18.289 4.64901 15.6178 5.8916 13.2087C7.13426 10.7995 8.93488 8.72182 11.1436 7.15011C13.3521 5.57851 15.9046 4.55816 18.5879 4.17355ZM21 7.99972C17.5522 7.99972 14.2456 9.36943 11.8076 11.8073C9.3697 14.2453 8.00006 17.552 8 20.9997C8 24.4475 9.36971 27.7541 11.8076 30.1921C14.2456 32.6301 17.5522 33.9997 21 33.9997C24.4478 33.9997 27.7544 32.6301 30.1924 30.1921C32.6303 27.7541 34 24.4475 34 20.9997C33.9999 17.552 32.6303 14.2453 30.1924 11.8073C27.7544 9.36943 24.4478 7.99972 21 7.99972Z" fill="url(#paint1_linear_284_288)"/>
<defs>
<linearGradient id="paint0_linear_284_288" x1="4" y1="23.1095" x2="42.2178" y2="23.1095" gradientUnits="userSpaceOnUse">
<stop stop-color="#48E3D6"/>
<stop offset="1" stop-color="#C83ECA"/>
</linearGradient>
<linearGradient id="paint1_linear_284_288" x1="4" y1="23.1095" x2="42.2178" y2="23.1095" gradientUnits="userSpaceOnUse">
<stop stop-color="#48E3D6"/>
<stop offset="1" stop-color="#C83ECA"/>
</linearGradient>
</defs>
</svg>
